<svg width="54" height="54" viewBox="0 0 54 54" fill="none" xmlns="http://www.w3.org/2000/svg">
<circle cx="26.5917" cy="27.4083" r="26.5917" transform="rotate(90 26.5917 27.4083)" fill="#042C49"/>
<path d="M18.3283 28.2428C18.3275 27.8628 18.4599 27.4946 18.7023 27.202L26.8336 17.4444C27.1096 17.1123 27.5063 16.9035 27.9363 16.8638C28.3663 16.8242 28.7945 16.957 29.1266 17.233C29.4587 17.509 29.6676 17.9057 29.7072 18.3357C29.7469 18.7658 29.6141 19.1939 29.338 19.526L22.0524 28.2428L29.0778 36.9595C29.2129 37.1259 29.3138 37.3173 29.3747 37.5227C29.4355 37.7282 29.4552 37.9437 29.4325 38.1567C29.4099 38.3698 29.3453 38.5763 29.2426 38.7644C29.1398 38.9524 29.001 39.1183 28.8339 39.2525C28.6667 39.4015 28.4705 39.5143 28.2577 39.5839C28.0448 39.6535 27.8199 39.6783 27.597 39.657C27.3741 39.6356 27.158 39.5684 26.9623 39.4597C26.7666 39.3509 26.5954 39.2029 26.4596 39.0249L18.6047 29.2673C18.4006 28.9663 18.3033 28.6056 18.3283 28.2428Z" fill="white"/>
</svg>
